<svg xmlns="http://www.w3.org/2000/svg" width="1200" height="630" viewBox="0 0 1200 630" role="img" aria-labelledby="title desc">
  <title id="title">Calculette quota annuel</title>
  <desc id="desc">Carte de partage pour une application locale de suivi des jours travailles.</desc>
  <defs>
    <linearGradient id="background" x1="0" x2="1" y1="0" y2="1">
      <stop offset="0" stop-color="#f8fafc" />
      <stop offset="0.58" stop-color="#eef7f4" />
      <stop offset="1" stop-color="#f7efe3" />
    </linearGradient>
    <filter id="shadow" x="-20%" y="-20%" width="140%" height="140%">
      <feDropShadow dx="0" dy="22" stdDeviation="22" flood-color="#0f172a" flood-opacity="0.14" />
    </filter>
  </defs>

  <rect width="1200" height="630" fill="url(#background)" />
  <path d="M0 489C150 455 255 520 390 494C522 468 585 356 723 350C861 344 931 448 1052 428C1115 418 1160 388 1200 354V630H0Z" fill="#0d766d" fill-opacity="0.1" />
  <path d="M1036 0H1200V222C1134 201 1091 158 1062 104C1045 72 1037 38 1036 0Z" fill="#f08a5d" fill-opacity="0.18" />

  <g transform="translate(82 74)">
    <text x="0" y="0" fill="#0d766d" font-family="Avenir Next, Segoe UI, sans-serif" font-size="24" font-weight="700">Calculette quota annuel</text>
    <text x="0" y="95" fill="#17232d" font-family="Iowan Old Style, Georgia, serif" font-size="78" font-weight="700">Suivre ses jours</text>
    <text x="0" y="178" fill="#17232d" font-family="Iowan Old Style, Georgia, serif" font-size="78" font-weight="700">sans tableur</text>
    <text x="0" y="242" fill="#46545f" font-family="Avenir Next, Segoe UI, sans-serif" font-size="31">Calendrier annuel, demi-journees, conges et quota client.</text>

    <g transform="translate(0 300)">
      <rect x="0" y="0" width="185" height="54" rx="27" fill="#ffffff" stroke="#d7e1e7" />
      <text x="30" y="35" fill="#17232d" font-family="Avenir Next, Segoe UI, sans-serif" font-size="24" font-weight="700">100 % local</text>
      <rect x="205" y="0" width="202" height="54" rx="27" fill="#103d46" />
      <text x="236" y="35" fill="#ffffff" font-family="Avenir Next, Segoe UI, sans-serif" font-size="24" font-weight="700">Export JSON</text>
    </g>
  </g>

  <g transform="translate(738 102)" filter="url(#shadow)">
    <rect width="360" height="426" rx="28" fill="#ffffff" />
    <rect width="360" height="84" rx="28" fill="#103d46" />
    <path d="M0 56H360V90H0Z" fill="#103d46" />
    <text x="34" y="53" fill="#f8fafc" font-family="Avenir Next, Segoe UI, sans-serif" font-size="28" font-weight="700">2026</text>
    <text x="242" y="53" fill="#d7ece8" font-family="Avenir Next, Segoe UI, sans-serif" font-size="22" font-weight="700">216 j</text>

    <g transform="translate(34 116)">
      <rect width="292" height="72" rx="12" fill="#f8fafc" stroke="#e4ebf0" />
      <text x="20" y="29" fill="#5d6b75" font-family="Avenir Next, Segoe UI, sans-serif" font-size="19">Travaille</text>
      <text x="20" y="58" fill="#17232d" font-family="Avenir Next, Segoe UI, sans-serif" font-size="34" font-weight="700">189,5 j</text>
      <rect x="180" y="21" width="88" height="30" rx="15" fill="#c9f0de" />
      <text x="202" y="43" fill="#177957" font-family="Avenir Next, Segoe UI, sans-serif" font-size="17" font-weight="700">OK</text>
    </g>

    <g transform="translate(34 220)">
      <rect x="0" y="0" width="35" height="35" rx="8" fill="#e5e8ec" />
      <rect x="43" y="0" width="35" height="35" rx="8" fill="#e5e8ec" />
      <rect x="86" y="0" width="35" height="35" rx="8" fill="#c9f0de" />
      <rect x="129" y="0" width="35" height="35" rx="8" fill="#c9f0de" />
      <rect x="172" y="0" width="35" height="35" rx="8" fill="#fff1be" />
      <rect x="215" y="0" width="35" height="35" rx="8" fill="#f0dbd9" />
      <rect x="258" y="0" width="35" height="35" rx="8" fill="#dce8ff" />

      <rect x="0" y="43" width="35" height="35" rx="8" fill="#c9f0de" />
      <rect x="43" y="43" width="35" height="35" rx="8" fill="#c9f0de" />
      <rect x="86" y="43" width="35" height="35" rx="8" fill="#c9f0de" />
      <rect x="129" y="43" width="35" height="35" rx="8" fill="#3c4650" />
      <rect x="172" y="43" width="35" height="35" rx="8" fill="#c9f0de" />
      <rect x="215" y="43" width="35" height="35" rx="8" fill="#fff1be" />
      <rect x="258" y="43" width="35" height="35" rx="8" fill="#e5e8ec" />

      <rect x="0" y="86" width="35" height="35" rx="8" fill="#dce8ff" />
      <rect x="43" y="86" width="35" height="35" rx="8" fill="#c9f0de" />
      <rect x="86" y="86" width="35" height="35" rx="8" fill="#f0dbd9" />
      <rect x="129" y="86" width="35" height="35" rx="8" fill="#c9f0de" />
      <rect x="172" y="86" width="35" height="35" rx="8" fill="#c9f0de" />
      <rect x="215" y="86" width="35" height="35" rx="8" fill="#c9f0de" />
      <rect x="258" y="86" width="35" height="35" rx="8" fill="#e5e8ec" />
    </g>

    <g transform="translate(34 374)">
      <circle cx="10" cy="10" r="10" fill="#c9f0de" />
      <text x="30" y="17" fill="#5d6b75" font-family="Avenir Next, Segoe UI, sans-serif" font-size="18">travaille</text>
      <circle cx="136" cy="10" r="10" fill="#fff1be" />
      <text x="156" y="17" fill="#5d6b75" font-family="Avenir Next, Segoe UI, sans-serif" font-size="18">0,5</text>
      <circle cx="216" cy="10" r="10" fill="#f0dbd9" />
      <text x="236" y="17" fill="#5d6b75" font-family="Avenir Next, Segoe UI, sans-serif" font-size="18">conge</text>
    </g>
  </g>
</svg>
